# xmcd
#
# Track frame offsets:
#	150
#	16779
#	45098
#	61445
#	84496
#	103823
#	125836
#	143726
#	162679
#	181894
#	200481
#	212650
#	225636
#	241914
#	256625
#	268936
#
# Disc length: 3867 seconds
#
# Revision: 0
# Processed by: cddbd v1.5.2PL0 Copyright (c) Steve Scherf et al.
# Submitted via: EasyCDDAExtractor 16.0.6.1
#
DISCID=db0f1910
DTITLE=Συλλογικός δίσκος - Σαράντα οκτώ αδέσποτα ρεμπέτικα 3
DYEAR=1993
DGENRE=Ρεμπέτικη
TTITLE0=Λεμπέσης Γιάννης - Με τα ρούχα μου μαλώνω [συρτός 2)4 Κεντρ Σ. Ελλάδας
TTITLE0=1900, δρόμος ουσάκ]
TTITLE1=Λεμπέσης Γιάννης - Στό 'πα και στο ξαναλέω [αργό ακουστικό τετράσημο (
TTITLE1=χαμπανέρα) αρχών 1900, δρόμος ουσάκ]
TTITLE2=Λεμπέσης Γιάννης - Τη δόλια τη μανούλα μου [παραδοσιακό γρήγορο συρτό 
TTITLE2=2 τέταρτα Σμύρνης προ 1910, δρόμος ουσάκ]
TTITLE3=Λεμπέσης Γιάννης - Είμαι μεμέτης μερακλής [αργό ζεϊμπέκικο 9 όγδοα 19ο
TTITLE3=υ αι, δρόμ. χιτζασκιάρ, προηγ ταξίμι με ταμπουρά]
TTITLE4=Λεμπέσης Γιάννης - Μαριωρή βρε Μαριωρή [συρτός 2)4 Δυτ Σ.Ελλάδας, δρόμ
TTITLE4=ος διατονικό μινόρε]
TTITLE5=Λεμπέσης Γιάννης - Μπουρνοβαλιός μανές [ακουστ. τετράσημο 4)4 (χαμπανέ
TTITLE5=ρα) Σμύρνης Πόλης προ 1870, δρόμ. χιτζασκιάρ]
TTITLE6=Λεμπέσης Γιάννης - Βάρα με με το στιλέτο [καμηλ. ζεϊμπέκικο 9/8 ουσάκ,
TTITLE6=προηγ. ταξίμι με μπαγλαμά]
TTITLE7=Νικολάου Ασημένια - Τα παιδιά της γειτονιάς σου [αργιλαμάς 9)8(2,3,2,2
TTITLE7=) 19ου, δρόμ. σαμπάχ και δια/κό μινόρε, προηγ ταξίμι]
TTITLE8=Λεμπέσης Γιάννης - Ζεϊμπέκικο μινόρε [ζεϊμπέκικο 9)8 19ου, δρόμος νεχα
TTITLE8=βέντ, προγ ταξίμι με κιθάρα]
TTITLE9=Λεμπέσης Γιάννης - Δε μού λέτε [καμηλιέρικο ζεϊμπέκικο 9)8 19ου τεκέδω
TTITLE9=ν, περιοχές δρόμων χιτζάζ και ραστ]
TTITLE10=Νικολάου Ασημένια - Τι σε μέλλει εσένανε [συρτός 2)4 Σμύρνης προ 1900
TTITLE10=, δρόμοι διατονικό μινόρε και κιουρδί]
TTITLE11=Ζορμπάς Γιώργος - Πολίτικο ζεϊμπέκικο [ζεϊμπέκικο 9/8 αρχές 20ου, δρό
TTITLE11=μος χιτζασκιάρ]
TTITLE12=Άνευ ερμηνευτού - Πολίτικο χασάπικο [ρυθμός χασάπικος 2/4, β μισό 19ο
TTITLE12=υ, δρόμος νεχαβέντ και τα μεάνια του]
TTITLE13=Ζορμπάς Γιώργος - Κάηκε κι ένα σχολείο [τσιφτετέλι 2/4, καταστρ Σμύρν
TTITLE13=ης, δρόμος ουσάκ]
TTITLE14=Νικολάου Ασημένια - Η αγάπη θέλει χάδι [ζεϊμπέκικο 9/8 αρχές 20ου, δρ
TTITLE14=όμος ουσάκ]
TTITLE15=Άνευ ερμηνευτού - Παραδοσιακές διαδρομές [σαντούρι Ν. Καρατάσος αυτοσ
TTITLE15=χεδιασμός, δρόμος χιτζάζ και τα μεάνια του]
EXTD=
EXTT0=
EXTT1=
EXTT2=
EXTT3=
EXTT4=
EXTT5=
EXTT6=
EXTT7=
EXTT8=
EXTT9=
EXTT10=
EXTT11=
EXTT12=
EXTT13=
EXTT14=
EXTT15=
PLAYORDER=
